<svg width="767" height="200" viewBox="0 0 767 200" fill="none" xmlns="http://www.w3.org/2000/svg">
<g clip-path="url(#clip0_2_26)">
<path d="M0 103.077L243.306 30.7692L320 124.615L247.273 0L0 103.077Z" fill="black"/>
<path d="M0 127.692L243.306 72.3077L320 148.205L243.306 50.2564L0 127.692Z" fill="black"/>
<path d="M0 152.821L243.306 108.205L320 170.256L243.306 92.8205L0 152.821Z" fill="black"/>
<path d="M0 174.359L243.306 138.974L320 190.256L243.306 124.615L0 174.359Z" fill="black"/>
<path d="M0 186.154L243.306 152.821L320 200H0V186.154Z" fill="black"/>
<path d="M0 103.077L243.306 30.7692L320 124.615L247.273 0L0 103.077Z" stroke="black"/>
<path d="M0 127.692L243.306 72.3077L320 148.205L243.306 50.2564L0 127.692Z" stroke="black"/>
<path d="M0 152.821L243.306 108.205L320 170.256L243.306 92.8205L0 152.821Z" stroke="black"/>
<path d="M0 174.359L243.306 138.974L320 190.256L243.306 124.615L0 174.359Z" stroke="black"/>
<path d="M0 186.154L243.306 152.821L320 200H0V186.154Z" stroke="black"/>
<path d="M373.32 125.48C370.12 125.48 367.16 124.96 364.44 123.92C361.76 122.84 359.42 121.34 357.42 119.42C355.46 117.46 353.92 115.18 352.8 112.58C351.68 109.98 351.12 107.12 351.12 104C351.12 100.88 351.68 98.02 352.8 95.42C353.92 92.82 355.48 90.56 357.48 88.64C359.48 86.68 361.82 85.18 364.5 84.14C367.22 83.06 370.18 82.52 373.38 82.52C376.62 82.52 379.6 83.08 382.32 84.2C385.08 85.28 387.42 86.9 389.34 89.06L385.44 92.84C383.84 91.16 382.04 89.92 380.04 89.12C378.04 88.28 375.9 87.86 373.62 87.86C371.26 87.86 369.06 88.26 367.02 89.06C365.02 89.86 363.28 90.98 361.8 92.42C360.32 93.86 359.16 95.58 358.32 97.58C357.52 99.54 357.12 101.68 357.12 104C357.12 106.32 357.52 108.48 358.32 110.48C359.16 112.44 360.32 114.14 361.8 115.58C363.28 117.02 365.02 118.14 367.02 118.94C369.06 119.74 371.26 120.14 373.62 120.14C375.9 120.14 378.04 119.74 380.04 118.94C382.04 118.1 383.84 116.82 385.44 115.1L389.34 118.88C387.42 121.04 385.08 122.68 382.32 123.8C379.6 124.92 376.6 125.48 373.32 125.48ZM402.068 125V96.74L403.508 98.24H390.428V93.2H419.468V98.24H406.448L407.827 96.74V125H402.068ZM426.977 137C425.457 137 423.977 136.74 422.537 136.22C421.097 135.74 419.857 135.02 418.817 134.06L421.277 129.74C422.077 130.5 422.957 131.08 423.917 131.48C424.877 131.88 425.897 132.08 426.977 132.08C428.377 132.08 429.537 131.72 430.457 131C431.377 130.28 432.237 129 433.037 127.16L435.017 122.78L435.617 122.06L448.097 93.2H453.737L438.317 128.18C437.397 130.42 436.357 132.18 435.197 133.46C434.077 134.74 432.837 135.64 431.477 136.16C430.117 136.72 428.617 137 426.977 137ZM434.537 126.02L420.017 93.2H426.017L438.377 121.52L434.537 126.02ZM479.714 122.3V98.24H465.914L465.614 104.36C465.534 106.36 465.394 108.3 465.194 110.18C465.034 112.02 464.754 113.72 464.354 115.28C463.994 116.84 463.454 118.12 462.734 119.12C462.014 120.12 461.054 120.74 459.854 120.98L454.154 119.96C455.394 120 456.394 119.6 457.154 118.76C457.914 117.88 458.494 116.68 458.894 115.16C459.334 113.64 459.654 111.92 459.854 110C460.054 108.04 460.214 106.02 460.334 103.94L460.814 93.2H485.474V122.3H479.714ZM452.894 132.38V119.96H490.334V132.38H484.934V125H458.354V132.38H452.894ZM497.838 125V93.2H503.778L517.458 116.72H515.058L529.098 93.2H534.498V125H529.278V99.68L530.238 100.22L517.398 121.4H514.878L501.978 99.8L503.118 99.56V125H497.838ZM545.709 125V93.2H551.469V125H545.709ZM548.589 87.08C547.469 87.08 546.529 86.72 545.769 86C545.049 85.28 544.689 84.4 544.689 83.36C544.689 82.28 545.049 81.38 545.769 80.66C546.529 79.94 547.469 79.58 548.589 79.58C549.709 79.58 550.629 79.94 551.349 80.66C552.109 81.34 552.489 82.2 552.489 83.24C552.489 84.32 552.129 85.24 551.409 86C550.689 86.72 549.749 87.08 548.589 87.08ZM576.561 125.36C573.321 125.36 570.421 124.66 567.861 123.26C565.341 121.86 563.361 119.94 561.921 117.5C560.481 115.06 559.761 112.26 559.761 109.1C559.761 105.94 560.481 103.14 561.921 100.7C563.361 98.26 565.341 96.36 567.861 95C570.421 93.6 573.321 92.9 576.561 92.9C579.441 92.9 582.001 93.48 584.241 94.64C586.521 95.76 588.281 97.44 589.521 99.68L585.141 102.5C584.101 100.94 582.821 99.8 581.301 99.08C579.821 98.32 578.221 97.94 576.501 97.94C574.421 97.94 572.561 98.4 570.921 99.32C569.281 100.24 567.981 101.54 567.021 103.22C566.061 104.86 565.581 106.82 565.581 109.1C565.581 111.38 566.061 113.36 567.021 115.04C567.981 116.72 569.281 118.02 570.921 118.94C572.561 119.86 574.421 120.32 576.501 120.32C578.221 120.32 579.821 119.96 581.301 119.24C582.821 118.48 584.101 117.32 585.141 115.76L589.521 118.52C588.281 120.72 586.521 122.42 584.241 123.62C582.001 124.78 579.441 125.36 576.561 125.36ZM602.868 125V96.74L604.308 98.24H591.228V93.2H620.268V98.24H607.248L608.628 96.74V125H602.868ZM638.912 125.36C635.512 125.36 632.512 124.66 629.912 123.26C627.352 121.86 625.352 119.94 623.912 117.5C622.512 115.06 621.812 112.26 621.812 109.1C621.812 105.94 622.492 103.14 623.852 100.7C625.252 98.26 627.152 96.36 629.552 95C631.992 93.6 634.732 92.9 637.772 92.9C640.852 92.9 643.572 93.58 645.932 94.94C648.292 96.3 650.132 98.22 651.452 100.7C652.812 103.14 653.492 106 653.492 109.28C653.492 109.52 653.472 109.8 653.432 110.12C653.432 110.44 653.412 110.74 653.372 111.02H626.312V106.88H650.372L648.032 108.32C648.072 106.28 647.652 104.46 646.772 102.86C645.892 101.26 644.672 100.02 643.112 99.14C641.592 98.22 639.812 97.76 637.772 97.76C635.772 97.76 633.992 98.22 632.432 99.14C630.872 100.02 629.652 101.28 628.772 102.92C627.892 104.52 627.452 106.36 627.452 108.44V109.4C627.452 111.52 627.932 113.42 628.892 115.1C629.892 116.74 631.272 118.02 633.032 118.94C634.792 119.86 636.812 120.32 639.092 120.32C640.972 120.32 642.672 120 644.192 119.36C645.752 118.72 647.112 117.76 648.272 116.48L651.452 120.2C650.012 121.88 648.212 123.16 646.052 124.04C643.932 124.92 641.552 125.36 638.912 125.36ZM682.468 111.98C680.788 112.78 679.048 113.42 677.248 113.9C675.488 114.34 673.668 114.56 671.788 114.56C667.948 114.56 664.908 113.66 662.668 111.86C660.468 110.06 659.368 107.28 659.368 103.52V93.2H665.128V103.16C665.128 105.44 665.828 107.12 667.228 108.2C668.668 109.28 670.588 109.82 672.988 109.82C674.508 109.82 676.068 109.62 677.668 109.22C679.308 108.82 680.908 108.26 682.468 107.54V111.98ZM682.048 125V93.2H687.808V125H682.048ZM722.03 125L709.73 109.52L714.47 106.64L728.81 125H722.03ZM698.99 125V93.2H704.75V125H698.99ZM703.01 111.56V106.64H713.51V111.56H703.01ZM714.95 109.76L709.61 109.04L721.79 93.2H727.97L714.95 109.76ZM747.415 125.36C744.215 125.36 741.375 124.66 738.895 123.26C736.415 121.86 734.455 119.94 733.015 117.5C731.575 115.02 730.855 112.22 730.855 109.1C730.855 105.94 731.575 103.14 733.015 100.7C734.455 98.26 736.415 96.36 738.895 95C741.375 93.6 744.215 92.9 747.415 92.9C750.575 92.9 753.395 93.6 755.875 95C758.395 96.36 760.355 98.26 761.755 100.7C763.195 103.1 763.915 105.9 763.915 109.1C763.915 112.26 763.195 115.06 761.755 117.5C760.355 119.94 758.395 121.86 755.875 123.26C753.395 124.66 750.575 125.36 747.415 125.36ZM747.415 120.32C749.455 120.32 751.275 119.86 752.875 118.94C754.515 118.02 755.795 116.72 756.715 115.04C757.635 113.32 758.095 111.34 758.095 109.1C758.095 106.82 757.635 104.86 756.715 103.22C755.795 101.54 754.515 100.24 752.875 99.32C751.275 98.4 749.455 97.94 747.415 97.94C745.375 97.94 743.555 98.4 741.955 99.32C740.355 100.24 739.075 101.54 738.115 103.22C737.155 104.86 736.675 106.82 736.675 109.1C736.675 111.34 737.155 113.32 738.115 115.04C739.075 116.72 740.355 118.02 741.955 118.94C743.555 119.86 745.375 120.32 747.415 120.32ZM354.42 192.72C356.5 193.48 358.42 193.68 360.18 193.32C361.94 192.92 363.52 191.58 364.92 189.3L366.96 186.06L367.56 185.4L382.98 156H388.92L370.26 190.56C368.86 193.2 367.22 195.2 365.34 196.56C363.5 197.88 361.5 198.6 359.34 198.72C357.22 198.88 355.06 198.48 352.86 197.52L354.42 192.72ZM367.38 190.74L348.96 156H355.38L370.68 185.94L367.38 190.74ZM430.812 198L420.672 182.52L425.412 179.64L437.652 198H430.812ZM414.072 184.56V179.64H424.392V184.56H414.072ZM425.952 182.76L420.492 182.04L430.632 166.2H436.812L425.952 182.76ZM395.112 198H388.272L400.452 179.64L405.192 182.52L395.112 198ZM415.812 198H410.052V166.2H415.812V198ZM411.792 184.56H401.532V179.64H411.792V184.56ZM399.972 182.76L389.112 166.2H395.232L405.372 182.04L399.972 182.76ZM475.07 156H481.07V198H475.07V156ZM450.95 198H444.95V156H450.95V198ZM475.61 179.28H450.35V174.06H475.61V179.28ZM494.049 192.72C496.129 193.48 498.049 193.68 499.809 193.32C501.569 192.92 503.149 191.58 504.549 189.3L506.589 186.06L507.189 185.4L522.609 156H528.549L509.889 190.56C508.489 193.2 506.849 195.2 504.969 196.56C503.129 197.88 501.129 198.6 498.969 198.72C496.849 198.88 494.689 198.48 492.489 197.52L494.049 192.72ZM507.009 190.74L488.589 156H495.009L510.309 185.94L507.009 190.74Z" fill="black"/>
</g>
<defs>
<clipPath id="clip0_2_26">
<rect width="767" height="200" fill="white"/>
</clipPath>
</defs>
</svg>
