<svg class="svg-icon" style="width: 1em;height: 1em;vertical-align: middle;fill: currentColor;overflow: hidden;" viewBox="0 0 1024 1024" version="1.1" xmlns="http://www.w3.org/2000/svg"><path d="M896 384h-56.4c-1.74-4.44-3.43-8.89-5.34-13.24L874 331a64 64 0 0 0 0-90.51L783.53 150a64 64 0 0 0-90.53 0l-39.8 39.78c-4.34-1.9-8.77-3.58-13.2-5.31V128a64 64 0 0 0-64-64H448a64 64 0 0 0-64 64v56.47c-4.43 1.73-8.86 3.41-13.2 5.31L331 150a64 64 0 0 0-90.51 0L150 240.47a64 64 0 0 0 0 90.53l39.78 39.78c-1.91 4.35-3.6 8.8-5.34 13.24H128a64 64 0 0 0-64 64V576a64 64 0 0 0 64 64h56.33c1.74 4.46 3.43 8.93 5.35 13.3L150 693a64 64 0 0 0 0 90.51L240.47 874a64 64 0 0 0 90.53 0l39.68-39.68c4.38 1.92 8.86 3.63 13.34 5.38V896a64 64 0 0 0 64 64H576a64 64 0 0 0 64-64v-56.26c4.47-1.75 9-3.46 13.34-5.38L693 874a64 64 0 0 0 90.51 0L874 783.53a64 64 0 0 0 0-90.53l-39.68-39.7c1.92-4.37 3.61-8.84 5.35-13.3H896a64 64 0 0 0 64-64V448a64 64 0 0 0-64-64z m0 192h-56.33a64 64 0 0 0-59.61 40.72l-0.9 2.32c-1.12 2.87-2.21 5.73-3.45 8.55a64 64 0 0 0 13.36 71l39.71 39.71-90.51 90.52-39.68-39.72a64 64 0 0 0-71-13.34c-2.89 1.28-5.85 2.41-8.8 3.56l-2.1 0.82a64 64 0 0 0-40.69 59.6V896H448v-56.26a64 64 0 0 0-40.69-59.6l-2.1-0.82c-2.95-1.15-5.91-2.28-8.8-3.56a64 64 0 0 0-71 13.34l-39.68 39.69-90.51-90.52 39.72-39.71a64 64 0 0 0 13.35-71c-1.24-2.82-2.33-5.68-3.44-8.55l-0.91-2.32A64 64 0 0 0 184.33 576H128V448h56.4a64 64 0 0 0 59.6-40.67l0.81-2.09c1.15-2.93 2.27-5.88 3.54-8.75a64 64 0 0 0-13.35-71l-39.78-39.78 90.51-90.5L325.55 235a64 64 0 0 0 71 13.33c2.74-1.21 5.55-2.28 8.36-3.37l2.38-0.93a64 64 0 0 0 40.7-59.6V128H576v56.47a64 64 0 0 0 40.7 59.6l2.39 0.93c2.8 1.09 5.6 2.16 8.35 3.37a64 64 0 0 0 71-13.33l39.82-39.82 90.51 90.5L789 325.5a64 64 0 0 0-13.35 71c1.27 2.87 2.39 5.82 3.54 8.75l0.81 2.09A64 64 0 0 0 839.6 448H896z"  /><path d="M512 320.1c-106 0-192 86-192 192s86 192 192 192 192-86 192-192-86-192-192-192z m0 320a128 128 0 1 1 128-128 128.14 128.14 0 0 1-128 128z"  /></svg>